# xmcd CD database file
#
# Track frame offsets:
#	180
#	19786
#	53705
#	79221
#	100147
#	116483
#	144941
#	165694
#	190342
#	206113
#	233163
#
# Disc length: 3596 seconds
#
# Revision: 0
# Processed by: cddbd v1.5.1PL0 Copyright (c) Steve Scherf et al.
# Submitted via: CDex 1.51
#
DISCID=8f0e0a0b
DTITLE=Various Artist - Dixiland High Life - live at the New Orleans-Jazz-Tage Lenk
DYEAR=1998
DGENRE=Jazz
TTITLE0=Big Butter And Egg Man
TTITLE1='s Wonderful
TTITLE2=Tin Roof Blues
TTITLE3=Avalon
TTITLE4=Who's Sorry Now
TTITLE5=Up A Lazi River
TTITLE6=Mama's Gone Good-Bye
TTITLE7=Wild Man Blues
TTITLE8=Chicago
TTITLE9=I Found A New Baby
TTITLE10=Tiger Rag
EXTD=YEAR: 1998
EXTT0=
EXTT1=
EXTT2=
EXTT3=
EXTT4=
EXTT5=
EXTT6=
EXTT7=
EXTT8=
EXTT9=
EXTT10=
PLAYORDER=
